<svg width="27" height="30" viewBox="0 0 27 30" fill="none" xmlns="http://www.w3.org/2000/svg">
<path d="M14.1442 15.2882C13.8349 15.4669 13.6443 15.797 13.6443 16.1543V28.2679C13.6443 29.0377 14.4776 29.5189 15.1443 29.1339L25.6347 23.0771C25.9441 22.8985 26.1347 22.5684 26.1347 22.2111V10.0975C26.1347 9.32766 25.3013 8.84653 24.6347 9.23144L14.1442 15.2882Z" fill="#B8BFC3"/>
<path d="M13.5673 0.288689C13.2579 0.110048 12.8767 0.110048 12.5673 0.288689L2.07687 6.34552C1.41021 6.73042 1.41022 7.69265 2.07687 8.07756L12.5673 14.1344C12.8767 14.313 13.2579 14.313 13.5673 14.1344L24.0578 8.07756C24.7245 7.69265 24.7245 6.73042 24.0578 6.34552L13.5673 0.288689Z" fill="#F0F2F3"/>
<path d="M1.50001 9.23144C0.833342 8.84653 0 9.32766 0 10.0975V22.2111C0 22.5684 0.190594 22.8985 0.49999 23.0771L10.9904 29.1339C11.6571 29.5189 12.4904 29.0377 12.4904 28.2679V16.1543C12.4904 15.797 12.2998 15.4669 11.9904 15.2882L1.50001 9.23144Z" fill="#848E93"/>
</svg>
